<svg width="140" height="30" viewBox="0 0 140 30" fill="none" xmlns="http://www.w3.org/2000/svg">
<path d="M129.568 22.0113V5.92041H133.636V22.0113H129.568ZM123.557 16V11.9318H139.648V16H123.557Z" fill="#070A10" style="fill:#070A10;fill:color(display-p3 0.0275 0.0392 0.0627);fill-opacity:1;"/>
<path d="M107.531 13.1818V23.2727H102.69V0H107.395V8.89773H107.6C107.993 7.86742 108.63 7.06061 109.509 6.47727C110.387 5.88636 111.49 5.59091 112.815 5.59091C114.028 5.59091 115.084 5.85606 115.986 6.38636C116.895 6.90909 117.6 7.66288 118.1 8.64773C118.607 9.625 118.857 10.7955 118.85 12.1591V23.2727H114.009V13.0227C114.016 11.947 113.743 11.1098 113.19 10.5114C112.645 9.91288 111.88 9.61364 110.895 9.61364C110.236 9.61364 109.653 9.75379 109.145 10.0341C108.645 10.3144 108.251 10.7235 107.963 11.2614C107.683 11.7917 107.539 12.4318 107.531 13.1818Z" fill="#070A10" style="fill:#070A10;fill:color(display-p3 0.0275 0.0392 0.0627);fill-opacity:1;"/>
<path d="M99.2444 10.7954L94.8126 11.0682C94.7369 10.6894 94.574 10.3485 94.324 10.0454C94.074 9.73482 93.7444 9.48861 93.3353 9.30679C92.9338 9.1174 92.4528 9.0227 91.8922 9.0227C91.1422 9.0227 90.5096 9.18179 89.9944 9.49997C89.4793 9.81058 89.2217 10.2272 89.2217 10.75C89.2217 11.1666 89.3884 11.5189 89.7217 11.8068C90.055 12.0947 90.627 12.3257 91.4376 12.5L94.5967 13.1363C96.2937 13.4848 97.5588 14.0454 98.3922 14.8182C99.2255 15.5909 99.6422 16.606 99.6422 17.8636C99.6422 19.0075 99.305 20.0113 98.6308 20.875C97.9641 21.7386 97.0475 22.4129 95.8808 22.8977C94.7217 23.375 93.3846 23.6136 91.8694 23.6136C89.5588 23.6136 87.7179 23.1325 86.3467 22.1704C84.9831 21.2007 84.1838 19.8825 83.949 18.2159L88.7103 17.9659C88.8543 18.6704 89.2028 19.2083 89.7558 19.5795C90.3088 19.9432 91.0172 20.125 91.8808 20.125C92.7293 20.125 93.4111 19.9621 93.9263 19.6363C94.449 19.303 94.7141 18.875 94.7217 18.3522C94.7141 17.9129 94.5285 17.553 94.1649 17.2727C93.8013 16.9848 93.2406 16.7651 92.4831 16.6136L89.4603 16.0113C87.7558 15.6704 86.4869 15.0795 85.6535 14.2386C84.8278 13.3977 84.4149 12.3257 84.4149 11.0227C84.4149 9.90149 84.7179 8.93558 85.324 8.12497C85.9376 7.31437 86.7975 6.68937 87.9035 6.24997C89.0172 5.81058 90.3202 5.59088 91.8126 5.59088C94.0172 5.59088 95.752 6.05679 97.0172 6.98861C98.2899 7.92043 99.0323 9.18937 99.2444 10.7954Z" fill="#070A10" style="fill:#070A10;fill:color(display-p3 0.0275 0.0392 0.0627);fill-opacity:1;"/>
<path d="M71.1363 23.6022C70.0226 23.6022 69.0302 23.4091 68.159 23.0227C67.2878 22.6288 66.5984 22.0492 66.0908 21.2841C65.5908 20.5113 65.3408 19.5492 65.3408 18.3977C65.3408 17.428 65.5188 16.6136 65.8749 15.9545C66.231 15.2954 66.7158 14.7651 67.3295 14.3636C67.9431 13.9621 68.6401 13.6591 69.4204 13.4545C70.2082 13.25 71.034 13.106 71.8976 13.0227C72.9128 12.9166 73.731 12.8182 74.3522 12.7272C74.9734 12.6288 75.4241 12.4848 75.7045 12.2954C75.9848 12.106 76.1249 11.8257 76.1249 11.4545V11.3863C76.1249 10.6666 75.8976 10.1098 75.4431 9.71588C74.9961 9.32194 74.3598 9.12497 73.534 9.12497C72.6628 9.12497 71.9696 9.31815 71.4545 9.70452C70.9393 10.0833 70.5984 10.5606 70.4317 11.1363L65.9545 10.7727C66.1817 9.71209 66.6287 8.79543 67.2954 8.0227C67.962 7.2424 68.8219 6.64391 69.8749 6.22724C70.9355 5.803 72.1628 5.59088 73.5567 5.59088C74.5264 5.59088 75.4545 5.70452 76.3408 5.93179C77.2348 6.15906 78.0264 6.51134 78.7158 6.98861C79.4128 7.46588 79.962 8.07952 80.3635 8.82952C80.7651 9.57194 80.9658 10.4621 80.9658 11.5V23.2727H76.3749V20.8522H76.2385C75.9582 21.3977 75.5832 21.8788 75.1135 22.2954C74.6439 22.7045 74.0795 23.0265 73.4204 23.2613C72.7613 23.4886 71.9999 23.6022 71.1363 23.6022ZM72.5226 20.2613C73.2348 20.2613 73.8635 20.1212 74.409 19.8409C74.9545 19.553 75.3825 19.1666 75.6931 18.6818C76.0037 18.1969 76.159 17.6477 76.159 17.0341V15.1818C76.0075 15.2803 75.7991 15.3712 75.534 15.4545C75.2764 15.5303 74.9848 15.6022 74.659 15.6704C74.3332 15.731 74.0075 15.7879 73.6817 15.8409C73.356 15.8863 73.0605 15.928 72.7954 15.9659C72.2272 16.0492 71.731 16.1818 71.3067 16.3636C70.8825 16.5454 70.5529 16.7916 70.3181 17.1022C70.0832 17.4053 69.9658 17.7841 69.9658 18.2386C69.9658 18.8977 70.2045 19.4015 70.6817 19.75C71.1666 20.0909 71.7802 20.2613 72.5226 20.2613Z" fill="#070A10" style="fill:#070A10;fill:color(display-p3 0.0275 0.0392 0.0627);fill-opacity:1;"/>
<path d="M55.2643 23.6136C53.4764 23.6136 51.9385 23.2348 50.6506 22.4772C49.3703 21.7121 48.3855 20.6515 47.6961 19.2954C47.0142 17.9394 46.6733 16.3788 46.6733 14.6136C46.6733 12.8257 47.018 11.2575 47.7074 9.90906C48.4044 8.553 49.393 7.49618 50.6733 6.73861C51.9536 5.97346 53.4764 5.59088 55.2415 5.59088C56.7643 5.59088 58.0976 5.8674 59.2415 6.42043C60.3855 6.97346 61.2908 7.74997 61.9574 8.74997C62.6241 9.74997 62.9915 10.9242 63.0597 12.2727H58.4915C58.3627 11.4015 58.0218 10.7007 57.4688 10.1704C56.9233 9.63255 56.2074 9.36361 55.3211 9.36361C54.5711 9.36361 53.9158 9.56815 53.3552 9.97724C52.8021 10.3788 52.3703 10.9659 52.0597 11.7386C51.7491 12.5113 51.5938 13.4469 51.5938 14.5454C51.5938 15.6591 51.7453 16.606 52.0483 17.3863C52.3589 18.1666 52.7946 18.7613 53.3552 19.1704C53.9158 19.5795 54.5711 19.7841 55.3211 19.7841C55.8741 19.7841 56.3703 19.6704 56.8097 19.4432C57.2567 19.2159 57.6241 18.8863 57.912 18.4545C58.2074 18.0151 58.4006 17.4886 58.4915 16.875H63.0597C62.9839 18.2083 62.6203 19.3825 61.9688 20.3977C61.3249 21.4053 60.4347 22.1932 59.2983 22.7613C58.162 23.3295 56.8173 23.6136 55.2643 23.6136Z" fill="#070A10" style="fill:#070A10;fill:color(display-p3 0.0275 0.0392 0.0627);fill-opacity:1;"/>
<path d="M32.1792 29.8182C31.5655 29.8182 0.0725395 29.9497 0.0725174 29.2727C0.0724116 26.0227 0.0725174 29.1645 0.0726929 25.7045H30.2246C30.7928 25.8788 31.2729 25.6894 31.7275 25.7045C32.1896 25.7197 32.3942 25.5 32.7275 25.2727C33.0684 25.0454 33.5154 24.8182 33.7275 24.2727L34.0655 23.7727L27.8041 5.81818H32.8951L36.5087 18.6364H36.6905L40.3382 5.81818H45.4632L38.6791 25.1591C38.3534 26.0985 37.9102 26.9167 37.3496 27.6136C36.7966 28.3182 36.0958 28.8598 35.2473 29.2386C34.3988 29.625 33.3761 29.8182 32.1792 29.8182Z" fill="#070A10" style="fill:#070A10;fill:color(display-p3 0.0275 0.0392 0.0627);fill-opacity:1;"/>
<path d="M0 0H6.06818L12.4773 15.6364H12.75L19.1591 0H25.2273V23.2727H20.4545V8.125H20.2614L14.2386 23.1591H10.9886L4.96591 8.06818H4.77273V23.2727H0V0Z" fill="#070A10" style="fill:#070A10;fill:color(display-p3 0.0275 0.0392 0.0627);fill-opacity:1;"/>
</svg>
